HIERARCHY
ROOT Hips
{
  OFFSET 3.307450 112.704000 -1.230760
  CHANNELS 6 Xposition Yposition Zposition Zrotation Xrotation Yrotation
  JOINT LeftUpLeg
  {
    OFFSET 10.594100 -7.046800 6.113700
    CHANNELS 6 Xposition Yposition Zposition Zrotation Xrotation Yrotation
    JOINT LeftLeg
    {
      OFFSET 1.202350 -46.194700 -0.690829
      CHANNELS 6 Xposition Yposition Zposition Zrotation Xrotation Yrotation
      JOINT LeftFoot
      {
        OFFSET -0.569770 -43.787100 1.218890
        CHANNELS 6 Xposition Yposition Zposition Zrotation Xrotation Yrotation
        JOINT LeftFootHeel
        {
          OFFSET -5.398440 -8.370720 -7.845880
          CHANNELS 6 Xposition Yposition Zposition Zrotation Xrotation Yrotation
          End Site
          {
            OFFSET 3.415870 0.000000 28.876000
          }
        }
        JOINT LeftHeelOutside
        {
          OFFSET 0.040859 -8.370720 -8.163310
          CHANNELS 6 Xposition Yposition Zposition Zrotation Xrotation Yrotation
          End Site
          {
            OFFSET 2.307530 0.000000 28.164500
          }
        }
      }
    }
  }
  JOINT RightUpLeg
  {
    OFFSET -10.594100 -7.046800 6.113700
    CHANNELS 6 Xposition Yposition Zposition Zrotation Xrotation Yrotation
    JOINT RightLeg
    {
      OFFSET -1.202350 -46.194700 -0.690829
      CHANNELS 6 Xposition Yposition Zposition Zrotation Xrotation Yrotation
      JOINT RightFoot
      {
        OFFSET 0.569770 -43.787100 1.218890
        CHANNELS 6 Xposition Yposition Zposition Zrotation Xrotation Yrotation
        JOINT RightFootHeel
        {
          OFFSET 5.398440 -8.370720 -7.845880
          CHANNELS 6 Xposition Yposition Zposition Zrotation Xrotation Yrotation
          End Site
          {
            OFFSET -3.415870 0.000000 28.876000
          }
        }
        JOINT RightHeelOutside
        {
          OFFSET -0.040859 -8.370720 -8.163310
          CHANNELS 6 Xposition Yposition Zposition Zrotation Xrotation Yrotation
          End Site
          {
            OFFSET -2.307530 0.000000 28.164500
          }
        }
      }
    }
  }
  JOINT Spine
  {
    OFFSET 0.000000 9.941710 1.685460
    CHANNELS 6 Xposition Yposition Zposition Zrotation Xrotation Yrotation
    JOINT Spine1
    {
      OFFSET 0.000000 11.798200 2.528190
      CHANNELS 6 Xposition Yposition Zposition Zrotation Xrotation Yrotation
      JOINT LeftShoulder
      {
        OFFSET 9.604760 16.636000 2.480700
        CHANNELS 6 Xposition Yposition Zposition Zrotation Xrotation Yrotation
        JOINT LeftArm
        {
          OFFSET 8.721320 -2.032930 -0.166911
          CHANNELS 6 Xposition Yposition Zposition Zrotation Xrotation Yrotation
          JOINT LeftForeArm
          {
            OFFSET 1.643330 -31.080500 -1.731440
            CHANNELS 6 Xposition Yposition Zposition Zrotation Xrotation Yrotation
            JOINT LeftHand
            {
              OFFSET 1.692920 -28.488600 -0.193187
              CHANNELS 6 Xposition Yposition Zposition Zrotation Xrotation Yrotation
              JOINT LeftPalm
              {
                OFFSET 0.000000 0.000000 0.000000
                CHANNELS 6 Xposition Yposition Zposition Zrotation Xrotation Yrotation
                                 JOINT LeftthumbA
                                  {
                                        OFFSET 3.400000 1.000000 -2.500000
                                        CHANNELS 6 Xposition Yposition Zposition Zrotation Xrotation Yrotation
                                        JOINT LeftthumbB
                                        {
                                          OFFSET 4.777030 0.000000 0.000000
                                          CHANNELS 6 Xposition Yposition Zposition Zrotation Xrotation Yrotation
                                          JOINT LeftthumbC
                                          {
                                                OFFSET 2.884440 0.000000 0.000000
                                                CHANNELS 6 Xposition Yposition Zposition Zrotation Xrotation Yrotation
                                                End Site
                                                {
                                                  OFFSET 0.000000 0.000000 0.000000
                                                }
                                          }
                                        }
                                  }
                                  JOINT LeftindexA
                                  {
                                        OFFSET 10.400000 0.000000 -2.600000
                                        CHANNELS 6 Xposition Yposition Zposition Zrotation Xrotation Yrotation
                                        JOINT LeftindexB
                                        {
                                          OFFSET 4.428320 0.000000 0.000000
                                          CHANNELS 6 Xposition Yposition Zposition Zrotation Xrotation Yrotation
                                          JOINT LeftindexC
                                          {
                                                OFFSET 2.611990 0.000000 0.000000
                                                CHANNELS 6 Xposition Yposition Zposition Zrotation Xrotation Yrotation
                                                End Site
                                                {
                                                  OFFSET 0.000000 0.000000 0.000000
                                                }
                                          }
                                        }
                                  }
                                  JOINT LeftmiddleA
                                  {
                                        OFFSET 10.600000 0.000000 0.000000
                                        CHANNELS 6 Xposition Yposition Zposition Zrotation Xrotation Yrotation
                                        JOINT LeftmiddleB
                                        {
                                          OFFSET 4.617360 0.000000 0.000000
                                          CHANNELS 6 Xposition Yposition Zposition Zrotation Xrotation Yrotation
                                          JOINT LeftmiddleC
                                          {
                                                OFFSET 3.010400 0.000000 0.000000
                                                CHANNELS 6 Xposition Yposition Zposition Zrotation Xrotation Yrotation
                                                End Site
                                                {
                                                  OFFSET 0.000000 0.000000 0.000000
                                                }
                                          }
                                        }
                                  }
                                  JOINT LeftringA
                                  {
                                        OFFSET 9.800000 0.000000 2.200000
                                        CHANNELS 6 Xposition Yposition Zposition Zrotation Xrotation Yrotation
                                        JOINT LeftringB
                                        {
                                          OFFSET 4.079220 0.000000 0.000000
                                          CHANNELS 6 Xposition Yposition Zposition Zrotation Xrotation Yrotation
                                          JOINT LeftringC
                                          {
                                                OFFSET 3.059410 0.000000 0.000000
                                                CHANNELS 6 Xposition Yposition Zposition Zrotation Xrotation Yrotation
                                                End Site
                                                {
                                                  OFFSET 0.000000 0.000000 0.000000
                                                }
                                          }
                                        }
                                  }
                                  JOINT LeftlittleA
                                  {
                                        OFFSET 8.600000 0.000000 4.200000
                                        CHANNELS 6 Xposition Yposition Zposition Zrotation Xrotation Yrotation
                                        JOINT LeftlittleB
                                        {
                                          OFFSET 3.130500 0.000000 0.000000
                                          CHANNELS 6 Xposition Yposition Zposition Zrotation Xrotation Yrotation
                                          JOINT LeftlittleC
                                          {
                                                OFFSET 2.214160 0.000000 0.000000
                                                CHANNELS 6 Xposition Yposition Zposition Zrotation Xrotation Yrotation
                                                End Site
                                                {
                                                  OFFSET 0.000000 0.000000 0.000000
                                                }
                                          }
                                        }
                                  }
		}
            }
          }
        }
      }
      JOINT RightShoulder
      {
        OFFSET -9.604760 16.636000 2.480700
        CHANNELS 6 Xposition Yposition Zposition Zrotation Xrotation Yrotation
        JOINT RightArm
        {
          OFFSET -8.721320 -2.032930 -0.166911
          CHANNELS 6 Xposition Yposition Zposition Zrotation Xrotation Yrotation
          JOINT RightForeArm
          {
            OFFSET -1.643330 -31.080500 -1.731440
            CHANNELS 6 Xposition Yposition Zposition Zrotation Xrotation Yrotation
            JOINT RightHand
            {
              OFFSET -1.692920 -28.488600 -0.193187
              CHANNELS 6 Xposition Yposition Zposition Zrotation Xrotation Yrotation
                          JOINT RightPalm
                          {
                            OFFSET 0.000000 0.000000 0.000000
                            CHANNELS 6 Xposition Yposition Zposition Zrotation Xrotation Yrotation
                              JOINT RightthumbA
                              {
                                    OFFSET 3.400000 1.000000 2.500000
                                    CHANNELS 6 Xposition Yposition Zposition Zrotation Xrotation Yrotation
                                    JOINT RightthumbB
                                    {
                                      OFFSET 4.777030 0.000000 0.000000
                                      CHANNELS 6 Xposition Yposition Zposition Zrotation Xrotation Yrotation
                                      JOINT RightthumbC
                                      {
                                            OFFSET 2.884440 0.000000 0.000000
                                            CHANNELS 6 Xposition Yposition Zposition Zrotation Xrotation Yrotation
                                            End Site
                                            {
                                              OFFSET 0.000000 0.000000 0.000000
                                            }
                                      }
                                    }
                              }
                              JOINT RightindexA
                              {
                                    OFFSET 10.400000 0.000000 2.600000
                                    CHANNELS 6 Xposition Yposition Zposition Zrotation Xrotation Yrotation
                                    JOINT RightindexB
                                    {
                                      OFFSET 4.428320 0.000000 0.000000
                                      CHANNELS 6 Xposition Yposition Zposition Zrotation Xrotation Yrotation
                                      JOINT RightindexC
                                      {
                                            OFFSET 2.611990 0.000000 0.000000
                                            CHANNELS 6 Xposition Yposition Zposition Zrotation Xrotation Yrotation
                                            End Site
                                            {
                                              OFFSET 0.000000 0.000000 0.000000
                                            }
                                      }
                                    }
                              }
                              JOINT RightmiddleA
                              {
                                    OFFSET 10.600000 0.000000 0.000000
                                    CHANNELS 6 Xposition Yposition Zposition Zrotation Xrotation Yrotation
                                    JOINT RightmiddleB
                                    {
                                      OFFSET 4.617360 0.000000 0.000000
                                      CHANNELS 6 Xposition Yposition Zposition Zrotation Xrotation Yrotation
                                      JOINT RightmiddleC
                                      {
                                            OFFSET 3.010400 0.000000 0.000000
                                            CHANNELS 6 Xposition Yposition Zposition Zrotation Xrotation Yrotation
                                            End Site
                                            {
                                              OFFSET 0.000000 0.000000 0.000000
                                            }
                                      }
                                    }
                              }
                              JOINT RightringA
                              {
                                    OFFSET 9.800000 0.000000 -2.200000
                                    CHANNELS 6 Xposition Yposition Zposition Zrotation Xrotation Yrotation
                                    JOINT RightringB
                                    {
                                      OFFSET 4.079220 0.000000 0.000000
                                      CHANNELS 6 Xposition Yposition Zposition Zrotation Xrotation Yrotation
                                      JOINT RightringC
                                      {
                                            OFFSET 3.059410 0.000000 0.000000
                                            CHANNELS 6 Xposition Yposition Zposition Zrotation Xrotation Yrotation
                                            End Site
                                            {
                                              OFFSET 0.000000 0.000000 0.000000
                                            }
                                      }
                                    }
                              }
                              JOINT RightlittleA
                              {
                                    OFFSET 8.600000 0.000000 -4.200000
                                    CHANNELS 6 Xposition Yposition Zposition Zrotation Xrotation Yrotation
                                    JOINT RightlittleB
                                    {
                                      OFFSET 3.130500 0.000000 0.000000
                                      CHANNELS 6 Xposition Yposition Zposition Zrotation Xrotation Yrotation
                                      JOINT RightlittleC
                                      {
                                            OFFSET 2.214160 0.000000 0.000000
                                            CHANNELS 6 Xposition Yposition Zposition Zrotation Xrotation Yrotation
                                            End Site
                                            {
                                              OFFSET 0.000000 0.000000 0.000000
                                            }
                                      }
                                    }
                              }
                        }
            }
          }
        }
      }
      JOINT Neck
      {
        OFFSET 0.000000 22.753700 3.090010
        CHANNELS 6 Xposition Yposition Zposition Zrotation Xrotation Yrotation
        JOINT Head
        {
          OFFSET 0.000000 11.351700 1.981750
          CHANNELS 6 Xposition Yposition Zposition Zrotation Xrotation Yrotation
          End Site
          {
            OFFSET 0.000000 12.831500 1.951020
          }
        }
      }
    }
  }
}
MOTION
Frames:	3
Frame Time:	0.03333333333
-0.876204	108.399	5.083	-7.15125	-14.7499	147.124	10.5941	-7.0468	6.1137	6.06053e-07	-2.88407e-07	2.45139e-06	1.20235	-46.1947	-0.690829	6.06053e-07	-2.88407e-07	2.45139e-06	-0.56977	-43.7871	1.21889	6.06053e-07	-2.88407e-07	2.45139e-06	-5.39844	-8.37072	-7.84588	0.0	0.0	0.0	0.0408592	-8.37072	-8.16331	0.0	0.0	0.0	-10.5941	-7.0468	6.1137	6.06053e-07	-2.88407e-07	2.45139e-06	-1.20235	-46.1947	-0.690829	6.06053e-07	-2.88407e-07	2.45139e-06	0.56977	-43.7871	1.21889	6.06053e-07	-2.88407e-07	2.45139e-06	5.39844	-8.37072	-7.84588	0.0	0.0	0.0	-0.0408587	-8.37072	-8.16331	0.0	0.0	0.0	0.0	9.94171	1.68546	6.06053e-07	-2.88407e-07	2.45139e-06	0.0	11.7982	2.52819	2.55894	-6.45127	-11.3161	9.60476	16.636	2.4807	-4.94907	0.85693	9.44098	8.72132	-2.03293	-0.166911	8.44183	-15.4671	-5.47707	1.64333	-31.0805	-1.73144	2.11642	-47.417	-7.59845	1.69292	-28.4886	-0.193187	26.4625	-22.1036	-50.8814	0.0	0.0	0.0	-99.28944	180.0	5.39039	3.4	1.0	-2.5	-9.62151	61.4892	40.5618	4.77703	0.0	0.0	13.038	25.9551	-5.7871	2.88444	0.0	0.0	19.6227	0.0	0.0	10.4	0.0	-2.6	19.7641	-2.03068	-5.63215	4.42832	0.0	0.0	18.9531	-0.321818	-0.940541	2.61199	0.0	0.0	5.06506	0.0401296	0.860251	10.6	0.0	0.0	15.7192	-0.489059	-1.73717	4.61736	0.0	0.0	0.549774	0.169758	0.275846	3.0104	0.0	0.0	6.13502	-0.0361786	-0.608579	9.8	0.0	2.2	3.67383	-0.338732	-5.26228	4.07922	0.0	0.0	9.59991	0.0	0.0	3.05941	0.0	0.0	4.02453	-0.118271	-1.7511	8.6	0.0	4.2	4.54483	-0.835382	-10.3842	3.1305	0.0	0.0	11.2428	0.225672	1.13143	2.21416	0.0	0.0	0.539893	-0.0109068	-1.14124	-9.60476	16.636	2.4807	-4.46713	0.76808	15.9768	-8.72132	-2.03293	-0.166911	-3.04718	-13.5774	-2.83492	-1.64333	-31.0805	-1.73144	39.7105	-46.4014	39.1486	-1.69292	-28.4886	-0.193187	-23.4685	-16.5712	34.0494	0.0	0.0	0.0	-106.2071	0.0	-4.49199	3.4	1.0	2.5	-9.49031	-59.2227	-39.5658	4.77703	0.0	0.0	6.26719	-20.9441	2.24807	2.88444	0.0	0.0	18.2939	0.0	0.0	10.4	0.0	2.6	19.4893	0.292992	0.827646	4.42832	0.0	0.0	13.4661	0.230738	0.963545	2.61199	0.0	0.0	6.7448	-0.0532599	-0.441383	10.6	0.0	0.0	23.1599	1.17391	2.74194	4.61736	0.0	0.0	2.47761	-0.0094492	-0.202295	3.0104	0.0	0.0	1.20705	0.000922221	0.337967	9.8	0.0	-2.2	3.93769	0.559082	7.96788	4.07922	0.0	0.0	7.05199	0.0	0.0	3.05941	0.0	0.0	-0.55035	-0.0161865	1.68331	8.6	0.0	-4.2	-1.36081	-0.238306	14.9098	3.1305	0.0	0.0	8.84182	-0.177914	-1.13854	2.21416	0.0	0.0	0.111507	0.00225266	1.15717	0.0	22.7537	3.09001	-3.90322	4.36118	7.52735	0.0	11.3517	1.98175	3.09625	-2.24826	8.55702	
-0.877057	108.399	5.08638	-7.14734	-14.7401	147.13	10.5941	-7.0468	6.1137	6.06053e-07	-2.88407e-07	2.45139e-06	1.20235	-46.1947	-0.690829	6.06053e-07	-2.88407e-07	2.45139e-06	-0.56977	-43.7871	1.21889	6.06053e-07	-2.88407e-07	2.45139e-06	-5.39844	-8.37072	-7.84588	0.0	0.0	0.0	0.0408592	-8.37072	-8.16331	0.0	0.0	0.0	-10.5941	-7.0468	6.1137	6.06053e-07	-2.88407e-07	2.45139e-06	-1.20235	-46.1947	-0.690829	6.06053e-07	-2.88407e-07	2.45139e-06	0.56977	-43.7871	1.21889	6.06053e-07	-2.88407e-07	2.45139e-06	5.39844	-8.37072	-7.84588	0.0	0.0	0.0	-0.0408587	-8.37072	-8.16331	0.0	0.0	0.0	0.0	9.94171	1.68546	6.06053e-07	-2.88407e-07	2.45139e-06	0.0	11.7982	2.52819	2.55319	-6.44122	-11.3215	9.60476	16.636	2.4807	-4.9488	0.857571	9.44159	8.72132	-2.03293	-0.166911	8.4438	-15.4667	-5.47547	1.64333	-31.0805	-1.73144	2.11482	-47.4161	-7.60069	1.69292	-28.4886	-0.193187	26.4627	-22.1034	-50.8803	0.0	0.0	0.0	-99.28944	180.0	5.39039	3.4	1.0	-2.5	-9.62151	61.4892	40.5618	4.77703	0.0	0.0	13.038	25.9551	-5.7871	2.88444	0.0	0.0	19.6227	0.0	0.0	10.4	0.0	-2.6	19.7641	-2.03068	-5.63215	4.42832	0.0	0.0	18.9531	-0.321818	-0.940677	2.61199	0.0	0.0	5.06506	0.0401296	0.85978	10.6	0.0	0.0	15.7192	-0.489059	-1.73717	4.61736	0.0	0.0	0.549793	0.16635	0.275061	3.0104	0.0	0.0	6.13502	-0.0361786	-0.608977	9.8	0.0	2.2	3.67384	-0.338732	-5.26228	4.07922	0.0	0.0	9.59991	0.0	0.0	3.05941	0.0	0.0	4.02454	-0.118271	-1.74907	8.6	0.0	4.2	4.5448	-0.835382	-10.3842	3.1305	0.0	0.0	11.2428	0.225672	1.13125	2.21416	0.0	0.0	0.539893	-0.0109068	-1.14128	-9.60476	16.636	2.4807	-4.46705	0.768856	15.9773	-8.72132	-2.03293	-0.166911	-3.04684	-13.5767	-2.83533	-1.64333	-31.0805	-1.73144	39.7099	-46.4136	39.1494	-1.69292	-28.4886	-0.193187	-23.4606	-16.563	34.0443	0.0	0.0	0.0	-106.2071	0.0	-4.49199	3.4	1.0	2.5	-9.49031	-59.2227	-39.5658	4.77703	0.0	0.0	6.26719	-20.9441	2.24807	2.88444	0.0	0.0	18.2939	0.0	0.0	10.4	0.0	2.6	19.4893	0.292992	0.827658	4.42832	0.0	0.0	13.4661	0.230738	0.963546	2.61199	0.0	0.0	6.7448	-0.0532657	-0.441367	10.6	0.0	0.0	23.1599	1.17391	2.74194	4.61736	0.0	0.0	2.47761	-0.00937631	-0.202079	3.0104	0.0	0.0	1.20705	0.000913954	0.337892	9.8	0.0	-2.2	3.94059	0.559082	7.96788	4.07922	0.0	0.0	7.05199	0.0	0.0	3.05941	0.0	0.0	-0.55035	-0.0161865	1.68331	8.6	0.0	-4.2	-1.35915	-0.244525	14.9098	3.1305	0.0	0.0	8.84182	-0.177914	-1.13854	2.21416	0.0	0.0	0.111507	0.00225266	1.15718	0.0	22.7537	3.09001	-3.90953	4.36138	7.48933	0.0	11.3517	1.98175	3.11021	-2.1591	8.36318	
-0.879113	108.4	5.09158	-7.14235	-14.7234	147.13	10.5941	-7.0468	6.1137	6.06053e-07	-2.88407e-07	2.45139e-06	1.20235	-46.1947	-0.690829	6.06053e-07	-2.88407e-07	2.45139e-06	-0.56977	-43.7871	1.21889	6.06053e-07	-2.88407e-07	2.45139e-06	-5.39844	-8.37072	-7.84588	0.0	0.0	0.0	0.0408592	-8.37072	-8.16331	0.0	0.0	0.0	-10.5941	-7.0468	6.1137	6.06053e-07	-2.88407e-07	2.45139e-06	-1.20235	-46.1947	-0.690829	6.06053e-07	-2.88407e-07	2.45139e-06	0.56977	-43.7871	1.21889	6.06053e-07	-2.88407e-07	2.45139e-06	5.39844	-8.37072	-7.84588	0.0	0.0	0.0	-0.0408587	-8.37072	-8.16331	0.0	0.0	0.0	0.0	9.94171	1.68546	6.06053e-07	-2.88407e-07	2.45139e-06	0.0	11.7982	2.52819	2.56127	-6.42453	-11.3222	9.60476	16.636	2.4807	-4.95553	0.854769	9.44212	8.72132	-2.03293	-0.166911	8.43933	-15.4661	-5.47911	1.64333	-31.0805	-1.73144	2.11902	-47.4151	-7.59504	1.69292	-28.4886	-0.193187	26.4621	-22.1039	-50.8828	0.0	0.0	0.0	-99.28944	180.0	5.39039	3.4	1.0	-2.5	-9.62151	61.4892	40.5618	4.77703	0.0	0.0	13.038	25.9551	-5.7871	2.88444	0.0	0.0	19.6227	0.0	0.0	10.4	0.0	-2.6	19.7641	-2.03068	-5.63215	4.42832	0.0	0.0	18.9531	-0.321818	-0.940811	2.61199	0.0	0.0	5.06506	0.0401296	0.859308	10.6	0.0	0.0	15.7192	-0.489059	-1.73717	4.61736	0.0	0.0	0.549811	0.162905	0.274277	3.0104	0.0	0.0	6.13502	-0.0361786	-0.609374	9.8	0.0	2.2	3.67385	-0.338732	-5.26228	4.07922	0.0	0.0	9.59991	0.0	0.0	3.05941	0.0	0.0	4.02454	-0.118271	-1.74704	8.6	0.0	4.2	4.54478	-0.835382	-10.3842	3.1305	0.0	0.0	11.2428	0.225672	1.13108	2.21416	0.0	0.0	0.539893	-0.0109068	-1.14131	-9.60476	16.636	2.4807	-4.46899	0.761681	15.9752	-8.72132	-2.03293	-0.166911	-3.05041	-13.5781	-2.83243	-1.64333	-31.0805	-1.73144	39.6972	-46.4215	39.1333	-1.69292	-28.4886	-0.193187	-23.4452	-16.5511	34.0417	0.0	0.0	0.0	-106.2071	0.0	-4.49199	3.4	1.0	2.5	-9.49031	-59.2227	-39.5658	4.77703	0.0	0.0	6.26719	-20.9441	2.24807	2.88444	0.0	0.0	18.2939	0.0	0.0	10.4	0.0	2.6	19.4893	0.292992	0.827669	4.42832	0.0	0.0	13.4661	0.230738	0.963547	2.61199	0.0	0.0	6.7448	-0.0532717	-0.441352	10.6	0.0	0.0	23.1599	1.17391	2.74194	4.61736	0.0	0.0	2.47761	-0.00930849	-0.201876	3.0104	0.0	0.0	1.20705	0.00090577	0.337821	9.8	0.0	-2.2	3.94351	0.559082	7.96788	4.07922	0.0	0.0	7.05199	0.0	0.0	3.05941	0.0	0.0	-0.55035	-0.0161865	1.68332	8.6	0.0	-4.2	-1.35746	-0.250868	14.9098	3.1305	0.0	0.0	8.84182	-0.177914	-1.13853	2.21416	0.0	0.0	0.111507	0.00225266	1.15719	0.0	22.7537	3.09001	-3.93666	4.35804	7.433	0.0	11.3517	1.98175	3.14879	-2.03236	8.10429	
